<svg width="21" height="22" viewBox="0 0 21 22" fill="none" xmlns="http://www.w3.org/2000/svg">
<path d="M6.70073 13.3186C6.40051 13.934 6.27292 14.4493 6.26475 14.4831C6.22037 14.6662 6.2998 14.8557 6.45877 14.9532C6.54579 15.0066 8.60988 16.2529 10.3237 15.5457C10.4608 15.489 10.5946 15.427 10.7246 15.3602C9.2631 14.9955 7.89338 14.2293 6.70073 13.3186Z" fill="#78C0DE"/>
<path d="M6.73888 7.74812C6.74221 7.75075 6.89058 7.87088 7.08709 8.06433C8.68375 6.92706 10.5585 6.07949 12.5195 6.07951C12.9522 6.07943 13.3884 6.10545 13.8265 6.15681C13.602 5.75341 13.2287 5.33241 12.6282 4.93213C11.4501 4.14673 9.9297 4.74431 8.73499 5.49654C7.60665 6.20698 6.73992 7.06889 6.70359 7.10522C6.52278 7.28604 6.53727 7.58562 6.73888 7.74812Z" fill="#78C0DE"/>
<path d="M5.51278 12.3129C5.33058 12.1419 5.06904 11.8856 4.90194 11.6988C4.46074 11.2058 4.4607 10.4623 4.90239 9.96877C5.01673 9.84122 5.24543 9.60596 5.51274 9.35515C5.04375 9.00011 4.46787 8.45361 3.92537 7.63978C3.7743 7.41333 3.45318 7.38081 3.26008 7.57391C2.61511 8.21888 2.26028 8.9963 2.28657 9.70676C2.31428 10.455 2.3143 11.2136 2.28659 11.9613C2.26028 12.6718 2.61511 13.4492 3.26008 14.0941C3.45285 14.2869 3.77418 14.2551 3.92535 14.0282C4.46789 13.2145 5.04379 12.6679 5.51278 12.3129Z" fill="#78C0DE"/>
<path d="M15.3494 14.0807C14.0412 12.576 14.0385 9.10293 15.3458 7.5913C15.3609 7.57384 15.3515 7.584 15.5494 7.38612C14.5327 7.09279 13.5149 6.94386 12.5196 6.94404C10.3064 6.944 8.14243 8.19517 6.49098 9.63574C6.07713 9.99694 5.71754 10.3545 5.54605 10.5458C5.39918 10.7099 5.39918 10.9582 5.54607 11.1223C5.91404 11.5337 6.67689 12.2391 7.49764 12.8345C8.75256 13.7438 10.2019 14.4772 11.7327 14.6727C11.7396 14.6665 12.0087 14.7176 12.5485 14.7238C13.5305 14.721 14.5438 14.5747 15.531 14.2904L15.3494 14.0807Z" fill="#78C0DE"/>
<path d="M19.8426 11.81C20.0468 11.5527 20.2306 11.221 20.2546 10.8904C20.3084 10.164 19.5006 9.42023 18.9138 8.98753C18.1848 8.4499 17.3079 8.00833 16.4671 7.69102L15.9901 8.16804C14.974 9.36296 14.9816 12.3401 16.0023 13.5141L16.421 13.9973C17.585 13.5637 19.0792 12.7852 19.8426 11.81ZM16.7024 10.4705C16.6335 10.2515 16.7548 10.0033 16.9901 9.9318C17.213 9.85772 17.4843 9.9944 17.5394 10.2607C17.5615 10.3685 17.5406 10.4849 17.475 10.5851C17.2636 10.8938 16.8051 10.811 16.7024 10.4705Z" fill="#78C0DE"/>
</svg>
