<svg width="1135" height="173" viewBox="0 0 1135 173" fill="none" xmlns="http://www.w3.org/2000/svg">
<path d="M139.6 64.4L134.6 71.2C132.6 72 130.667 72.4 128.8 72.4C127.733 72.4 126.533 72.2 125.2 71.8C124 71.2667 122.867 70.6 121.8 69.8C120.733 68.8667 119.8 67.7333 119 66.4C118.333 65.0667 118 63.5333 118 61.8C118 59.8 118.2 57.7333 118.6 55.6C119 53.4667 119.733 51.1333 120.8 48.6C122 46.0667 123.6 43.4 125.6 40.6C127.733 37.8 130.467 34.7333 133.8 31.4C134.2 31.4 134.533 31.4 134.8 31.4C135.2 31.2667 135.533 31.2 135.8 31.2C138.067 31.2 139.333 32.2 139.6 34.2C139.467 34.7333 139.067 35.5333 138.4 36.6C137.867 37.6667 137.2 38.7333 136.4 39.8C135.733 40.8667 135.067 41.8667 134.4 42.8C133.867 43.6 133.533 44.0667 133.4 44.2C131.933 46.8667 130.933 49.8667 130.4 53.2H131.4C132.2 53.2 133 53.3333 133.8 53.6C134.733 53.7333 135.6 54.2 136.4 55C137.2 55.8 137.867 56.9333 138.4 58.4C139.067 59.8667 139.467 61.8667 139.6 64.4ZM111.6 64.4L106.6 71.2C104.6 72 102.667 72.4 100.8 72.4C99.7333 72.4 98.5333 72.2 97.2 71.8C96 71.2667 94.8667 70.6 93.8 69.8C92.7333 68.8667 91.8 67.7333 91 66.4C90.3333 65.0667 90 63.5333 90 61.8C90 59.8 90.2 57.7333 90.6 55.6C91 53.4667 91.7333 51.1333 92.8 48.6C94 46.0667 95.6 43.4 97.6 40.6C99.7333 37.8 102.467 34.7333 105.8 31.4C106.2 31.4 106.533 31.4 106.8 31.4C107.2 31.2667 107.533 31.2 107.8 31.2C110.067 31.2 111.333 32.2 111.6 34.2C111.467 34.7333 111.067 35.5333 110.4 36.6C109.867 37.6667 109.2 38.7333 108.4 39.8C107.733 40.8667 107.067 41.8667 106.4 42.8C105.867 43.6 105.533 44.0667 105.4 44.2C103.933 46.8667 102.933 49.8667 102.4 53.2H103.4C104.2 53.2 105 53.3333 105.8 53.6C106.733 53.7333 107.6 54.2 108.4 55C109.2 55.8 109.867 56.9333 110.4 58.4C111.067 59.8667 111.467 61.8667 111.6 64.4Z" fill="#DBDBDB"/>
<path d="M994.463 108.6L999.462 101.8C1001.46 101 1003.4 100.6 1005.26 100.6C1006.33 100.6 1007.53 100.8 1008.86 101.2C1010.06 101.733 1011.2 102.4 1012.26 103.2C1013.33 104.133 1014.26 105.267 1015.06 106.6C1015.73 107.933 1016.06 109.467 1016.06 111.2C1016.06 113.2 1015.86 115.267 1015.46 117.4C1015.06 119.533 1014.33 121.867 1013.26 124.4C1012.06 126.933 1010.46 129.6 1008.46 132.4C1006.33 135.2 1003.6 138.267 1000.26 141.6C999.862 141.6 999.529 141.6 999.262 141.6C998.862 141.733 998.529 141.8 998.262 141.8C995.996 141.8 994.729 140.8 994.463 138.8C994.596 138.267 994.996 137.467 995.662 136.4C996.196 135.333 996.862 134.267 997.662 133.2C998.329 132.133 998.996 131.133 999.662 130.2C1000.2 129.4 1000.53 128.933 1000.66 128.8C1002.13 126.133 1003.13 123.133 1003.66 119.8L1002.66 119.8C1001.86 119.8 1001.06 119.667 1000.26 119.4C999.329 119.267 998.462 118.8 997.662 118C996.862 117.2 996.196 116.067 995.662 114.6C994.996 113.133 994.596 111.133 994.463 108.6ZM1022.46 108.6L1027.46 101.8C1029.46 101 1031.4 100.6 1033.26 100.6C1034.33 100.6 1035.53 100.8 1036.86 101.2C1038.06 101.733 1039.2 102.4 1040.26 103.2C1041.33 104.133 1042.26 105.267 1043.06 106.6C1043.73 107.933 1044.06 109.467 1044.06 111.2C1044.06 113.2 1043.86 115.267 1043.46 117.4C1043.06 119.533 1042.33 121.867 1041.26 124.4C1040.06 126.933 1038.46 129.6 1036.46 132.4C1034.33 135.2 1031.6 138.267 1028.26 141.6C1027.86 141.6 1027.53 141.6 1027.26 141.6C1026.86 141.733 1026.53 141.8 1026.26 141.8C1024 141.8 1022.73 140.8 1022.46 138.8C1022.6 138.267 1023 137.467 1023.66 136.4C1024.2 135.333 1024.86 134.267 1025.66 133.2C1026.33 132.133 1027 131.133 1027.66 130.2C1028.2 129.4 1028.53 128.933 1028.66 128.8C1030.13 126.133 1031.13 123.133 1031.66 119.8L1030.66 119.8C1029.86 119.8 1029.06 119.667 1028.26 119.4C1027.33 119.267 1026.46 118.8 1025.66 118C1024.86 117.2 1024.2 116.067 1023.66 114.6C1023 113.133 1022.6 111.133 1022.46 108.6Z" fill="#DBDBDB"/>
</svg>
